<svg width="32" height="32" viewBox="0 0 32 32" fill="none" xmlns="http://www.w3.org/2000/svg">
  <!-- Gradient definitions -->
  <defs>
    <linearGradient id="favSkyGradient" x1="0%" y1="0%" x2="100%" y2="100%">
      <stop offset="0%" style="stop-color:#56CCF2;stop-opacity:1" />
      <stop offset="100%" style="stop-color:#2C82C9;stop-opacity:1" />
    </linearGradient>
    <linearGradient id="favSunGradient" x1="0%" y1="0%" x2="100%" y2="100%">
      <stop offset="0%" style="stop-color:#FFD93D;stop-opacity:1" />
      <stop offset="100%" style="stop-color:#FFA500;stop-opacity:1" />
    </linearGradient>
    <!-- Subtle shadow -->
    <filter id="shadow" x="-50%" y="-50%" width="200%" height="200%">
      <feGaussianBlur in="SourceAlpha" stdDeviation="1"/>
      <feOffset dx="0" dy="1" result="offsetblur"/>
      <feComponentTransfer>
        <feFuncA type="linear" slope="0.2"/>
      </feComponentTransfer>
      <feMerge>
        <feMergeNode/>
        <feMergeNode in="SourceGraphic"/>
      </feMerge>
    </filter>
  </defs>
  
  <!-- Background circle with gradient -->
  <circle cx="16" cy="16" r="15" fill="url(#favSkyGradient)" filter="url(#shadow)"/>
  
  <!-- Sun in upper right -->
  <circle cx="21" cy="11" r="4.5" fill="url(#favSunGradient)"/>
  <circle cx="21" cy="11" r="3" fill="#FFE573"/>
  
  <!-- Contrail path -->
  <path d="M 8 18 Q 12 15, 16 15 T 24 18" 
        stroke="white" 
        stroke-width="2" 
        stroke-linecap="round"
        fill="none"
        opacity="0.85"/>
  
  <!-- Airplane silhouette -->
  <g transform="translate(22, 17)">
    <!-- Fuselage -->
    <rect x="0" y="0" width="6" height="1.5" fill="white" rx="0.3"/>
    <!-- Wings -->
    <rect x="2" y="-2.5" width="1" height="2.5" fill="white"/>
    <rect x="2" y="1.5" width="1" height="2.5" fill="white"/>
    <!-- Tail -->
    <path d="M 0 0 L -0.8 -1.5 L 0 -1.2 Z" fill="white"/>
    <path d="M 0 1.5 L -0.8 3 L 0 2.7 Z" fill="white"/>
  </g>
  
  <!-- Small cloud accent -->
  <g opacity="0.25">
    <circle cx="9" cy="23" r="2" fill="white"/>
    <circle cx="12" cy="23" r="2.3" fill="white"/>
    <circle cx="15" cy="23" r="2" fill="white"/>
  </g>
</svg>
